<svg class="animated" id="freepik_stories-paper-map" xmlns="http://www.w3.org/2000/svg" viewBox="0 0 500 500" version="1.1" xmlns:xlink="http://www.w3.org/1999/xlink" xmlns:svgjs="http://svgjs.com/svgjs"><style>svg#freepik_stories-paper-map:not(.animated) .animable {opacity: 0;}svg#freepik_stories-paper-map.animated #freepik--Map--inject-3 {animation: 1s 1 forwards cubic-bezier(.36,-0.01,.5,1.38) slideLeft,1.5s Infinite  linear floating;animation-delay: 0s,1s;}svg#freepik_stories-paper-map.animated #freepik--Character--inject-3 {animation: 1.5s Infinite  linear wind;animation-delay: 0s;}            @keyframes slideLeft {                0% {                    opacity: 0;                    transform: translateX(-30px);                }                100% {                    opacity: 1;                    transform: translateX(0);                }            }                    @keyframes floating {                0% {                    opacity: 1;                    transform: translateY(0px);                }                50% {                    transform: translateY(-10px);                }                100% {                    opacity: 1;                    transform: translateY(0px);                }            }                    @keyframes wind {                0% {                    transform: rotate( 0deg );                }                25% {                    transform: rotate( 1deg );                }                75% {                    transform: rotate( -1deg );                }            }        </style><g id="freepik--background-simple--inject-3" class="animable" style="transform-origin: 291.848px 190.221px;"><path d="M417.14,148.12c-43.47-45.61-160.89-64.43-221.38-52.07-59.7,12.2-82.15,81.5-14.44,103.58,32.74,10.68,46.91,10.94,72.07,38,26.76,28.82,54.71,45.18,94.79,49.8C426.6,296.49,478,212,417.14,148.12Z" style="fill: rgb(243, 85, 94); transform-origin: 291.848px 190.221px;" id="elt2f8iuel9e" class="animable"></path><g id="el4mfvch362te"><path d="M417.14,148.12c-43.47-45.61-160.89-64.43-221.38-52.07-59.7,12.2-82.15,81.5-14.44,103.58,32.74,10.68,46.91,10.94,72.07,38,26.76,28.82,54.71,45.18,94.79,49.8C426.6,296.49,478,212,417.14,148.12Z" style="fill: rgb(255, 255, 255); opacity: 0.9; transform-origin: 291.848px 190.221px;" class="animable"></path></g></g><g id="freepik--Shadow--inject-3" class="animable" style="transform-origin: 250px 416.24px;"><ellipse cx="250" cy="416.24" rx="193.89" ry="11.32" style="fill: rgb(245, 245, 245); transform-origin: 250px 416.24px;" id="elbxpzokqp3xb" class="animable"></ellipse></g><g id="freepik--Map--inject-3" class="animable" style="transform-origin: 207.64px 271.595px;"><polygon points="254.87 398.06 338.15 401.68 326.14 129.61 242.85 125.99 254.87 398.06" style="fill: rgb(243, 85, 94); transform-origin: 290.5px 263.835px;" id="el98ijw07r915" class="animable"></polygon><g id="elef2zncytgrp"><polygon points="254.87 398.06 338.15 401.68 326.14 129.61 242.85 125.99 254.87 398.06" style="opacity: 0.6; transform-origin: 290.5px 263.835px;" class="animable"></polygon></g><polygon points="172.42 413.33 254.87 398.06 242.85 125.99 160.4 141.26 172.42 413.33" style="fill: rgb(243, 85, 94); transform-origin: 207.635px 269.66px;" id="el14hsm82iq94b" class="animable"></polygon><g id="eli2wi7wv4llh"><polygon points="172.42 413.33 254.87 398.06 242.85 125.99 160.4 141.26 172.42 413.33" style="opacity: 0.6; transform-origin: 207.635px 269.66px;" class="animable"></polygon></g><polygon points="89.13 409.71 172.42 413.33 160.4 141.26 77.11 137.64 89.13 409.71" style="fill: rgb(243, 85, 94); transform-origin: 124.765px 275.485px;" id="elw9tpjsad68" class="animable"></polygon><g id="el0ddq8ntmbnl8"><polygon points="89.13 409.71 172.42 413.33 160.4 141.26 77.11 137.64 89.13 409.71" style="opacity: 0.6; transform-origin: 124.765px 275.485px;" class="animable"></polygon></g><g id="eloadu665m58"><rect x="123.91" y="126.82" width="0.93" height="16.64" style="fill: rgb(243, 85, 94); transform-origin: 124.375px 135.14px; transform: rotate(-87.51deg);" class="animable"></rect></g><g id="elzr7s0tu5h8h"><rect x="77.82" y="257.52" width="0.93" height="6.4" style="fill: rgb(243, 85, 94); transform-origin: 78.285px 260.72px; transform: rotate(-2.53deg);" class="animable"></rect></g><g id="elshcpi8qxedf"><rect x="78.49" y="268.63" width="0.93" height="14.4" style="fill: rgb(243, 85, 94); transform-origin: 78.955px 275.83px; transform: rotate(-2.53deg);" class="animable"></rect></g><g id="elttdurthazwn"><circle cx="125.12" cy="206.41" r="22.29" style="fill: rgb(243, 85, 94); opacity: 0.6; transform-origin: 125.12px 206.41px;" class="animable"></circle></g><g id="elmf858w9bpzk"><circle cx="225.92" cy="306.19" r="15.62" style="fill: rgb(243, 85, 94); opacity: 0.2; transform-origin: 225.92px 306.19px; transform: rotate(-47.82deg);" class="animable"></circle></g><path d="M331.49,314.44,278.74,287,299,226.34l22.3,18.25,7.72-9.43-80.45-65.84-54.68-34.47-6.5,10.3,31.14,19.63-58.36,54.35L84.31,275.25,91.55,285l22.71-16.8,27.18,139.37,11.95-2.33L125.11,260.21l18.86-14,18.73,13,84.6,25.07,16.42,8.56L246.3,328.81,222,395.36l11.44,4.18,24.11-66,17-35.07,51.33,26.74ZM168,248.11l-13.72-9.51,13.36-9.88.27-.21,61.23-57,12.25,7.73,47.48,38.85-21.1,63.18L251.89,273Z" style="fill: rgb(243, 85, 94); transform-origin: 207.9px 271.21px;" id="elkxu7ol3uih" class="animable"></path><g id="el280qddc5ciy"><polygon points="173.2 413.33 255.65 398.06 243.63 125.99 161.18 141.26 173.2 413.33" style="fill: rgb(38, 50, 56); opacity: 0.3; mix-blend-mode: multiply; transform-origin: 208.415px 269.66px;" class="animable"></polygon></g><g id="eluh2z385kot8"><circle cx="125.12" cy="206.41" r="22.29" style="opacity: 0.1; transform-origin: 125.12px 206.41px;" class="animable"></circle></g><g id="eliklhrt3rtzf"><path d="M331.49,314.44,278.74,287,299,226.34l22.3,18.25,7.72-9.43-80.45-65.84-54.68-34.47-6.5,10.3,31.14,19.63-58.36,54.35L84.31,275.25,91.55,285l22.71-16.8,27.18,139.37,11.95-2.33L125.11,260.21l18.86-14,18.73,13,84.6,25.07,16.42,8.56L246.3,328.81,222,395.36l11.44,4.18,24.11-66,17-35.07,51.33,26.74ZM168,248.11l-13.72-9.51,13.36-9.88.27-.21,61.23-57,12.25,7.73,47.48,38.85-21.1,63.18L251.89,273Z" style="opacity: 0.7; transform-origin: 207.9px 271.21px;" class="animable"></path></g><path d="M327.54,130l-84.81-3.68-82.46,15.26-84.72-3.68L87.72,413.51l84.82,3.69L255,401.93l84.73,3.69Zm-72,259.78-1.38-.06-1.36.26-81.09,15L99.4,401.83,88.3,150.63l71.44,3.1,1.39.06,1.36-.25,81.09-15,72.29,3.14L327,392.87Z" style="fill: rgb(243, 85, 94); transform-origin: 207.64px 271.76px;" id="eleptnwdofs74" class="animable"></path><g id="el00dn4zxqcow6"><path d="M327.54,130l-84.81-3.68-82.46,15.26-84.72-3.68L87.72,413.51l84.82,3.69L255,401.93l84.73,3.69Zm-72,259.78-1.38-.06-1.36.26-81.09,15L99.4,401.83,88.3,150.63l71.44,3.1,1.39.06,1.36-.25,81.09-15,72.29,3.14L327,392.87Z" style="opacity: 0.7; transform-origin: 207.64px 271.76px;" class="animable"></path></g><g id="el6m7r9g0bvi4"><rect x="123.91" y="126.82" width="0.93" height="16.64" style="opacity: 0.7; transform-origin: 124.375px 135.14px; transform: rotate(-87.51deg);" class="animable"></rect></g><g id="eluvyrkznm7u"><rect x="77.82" y="257.52" width="0.93" height="6.4" style="opacity: 0.7; transform-origin: 78.285px 260.72px; transform: rotate(-2.53deg);" class="animable"></rect></g><g id="elmo2jc8zeimc"><rect x="78.49" y="268.63" width="0.93" height="14.4" style="opacity: 0.7; transform-origin: 78.955px 275.83px; transform: rotate(-2.53deg);" class="animable"></rect></g></g><g id="freepik--Character--inject-3" class="animable animator-active" style="transform-origin: 359.358px 278.075px;"><path d="M370.55,185.34a39.84,39.84,0,0,0-57.75,54.14l-.54,14.73,14.44-3a39.84,39.84,0,0,0,43.85-65.9Z" style="fill: rgb(243, 85, 94); transform-origin: 344.806px 215.73px;" id="elltbaowfbvn" class="animable"></path><g id="elikur8cnh5j"><circle cx="344.81" cy="215.76" r="30.09" style="fill: rgb(243, 85, 94); transform-origin: 344.81px 215.76px; transform: rotate(-4.82deg);" class="animable"></circle></g><g id="elufus751fz7"><circle cx="344.81" cy="215.76" r="30.09" style="opacity: 0.3; transform-origin: 344.81px 215.76px; transform: rotate(-4.82deg);" class="animable"></circle></g><polygon points="361.98 410.99 354.64 410.99 353.91 393.98 361.25 393.98 361.98 410.99" style="fill: rgb(228, 137, 123); transform-origin: 357.945px 402.485px;" id="elk4jvnw7npjc" class="animable"></polygon><path d="M399.71,189.36c.64,1.26,1.17,2.38,1.68,3.58s1,2.37,1.51,3.56c1,2.39,1.84,4.82,2.62,7.29s1.51,5,2.07,7.56c.31,1.27.53,2.59.79,3.9s.41,2.64.52,4l.1,1,0,.26,0,.38a7.36,7.36,0,0,1,0,1.15,8.62,8.62,0,0,1-1.37,4,12.42,12.42,0,0,1-4.35,3.92,30.8,30.8,0,0,1-8,3,70.11,70.11,0,0,1-15.43,1.85l-.7-5.47A130.25,130.25,0,0,0,392.72,225a26.68,26.68,0,0,0,5.54-2.91c.67-.49,1.12-1.08,1-1.1a.93.93,0,0,0-.22.54,1.8,1.8,0,0,0,0,.22s0,.06,0,0l0-.1,0-.21-.16-.82a85.1,85.1,0,0,0-3.78-13.29c-.8-2.22-1.67-4.43-2.56-6.63s-1.87-4.43-2.77-6.45Z" style="fill: rgb(228, 137, 123); transform-origin: 394.086px 212.085px;" id="elsoqgasy9azb" class="animable"></path><path d="M398.41,184c6.38,3,10,23.1,10,23.1l-15.57,6.21a116.48,116.48,0,0,1-5.5-17.15C385.2,186.9,391.9,180.9,398.41,184Z" style="fill: rgb(243, 85, 94); transform-origin: 397.672px 198.243px;" id="elu6f2yp67w8e" class="animable"></path><g id="eldgscoh15cb"><path d="M398.41,184c6.38,3,10,23.1,10,23.1l-15.57,6.21a116.48,116.48,0,0,1-5.5-17.15C385.2,186.9,391.9,180.9,398.41,184Z" style="fill: rgb(255, 255, 255); opacity: 0.7; transform-origin: 397.672px 198.243px;" class="animable"></path></g><polygon points="417.14 410.99 409.79 410.99 404.73 393.98 412.08 393.98 417.14 410.99" style="fill: rgb(228, 137, 123); transform-origin: 410.935px 402.485px;" id="elj39bspmou7f" class="animable"></polygon><polygon points="353.91 393.98 354.28 402.75 361.63 402.75 361.26 393.98 353.91 393.98" style="fill: rgb(206, 111, 100); transform-origin: 357.77px 398.365px;" id="el09p4y2mgfzio" class="animable"></polygon><polygon points="412.08 393.98 404.73 393.98 407.34 402.75 414.69 402.75 412.08 393.98" style="fill: rgb(206, 111, 100); transform-origin: 409.71px 398.365px;" id="el0f7dxh5h1tgi" class="animable"></polygon><path d="M369.43,247.36S363.34,299,367.91,320c5,23,36.53,81.06,36.53,81.06H417.9s-25.09-56.17-27.95-79c-3.1-24.75,4.84-54.64,4.84-74.71Z" style="fill: rgb(243, 85, 94); transform-origin: 392.055px 324.205px;" id="elete6czv7epv" class="animable"></path><g id="elt7banxo7wtk"><path d="M369.43,247.36S363.34,299,367.91,320c5,23,36.53,81.06,36.53,81.06H417.9s-25.09-56.17-27.95-79c-3.1-24.75,4.84-54.64,4.84-74.71Z" style="opacity: 0.6; transform-origin: 392.055px 324.205px;" class="animable"></path></g><path d="M380.61,229l-5.13-1.84.16,9.39s4.15.27,6.45-2.43Z" style="fill: rgb(228, 137, 123); transform-origin: 378.785px 231.859px;" id="eloksfbtqctfm" class="animable"></path><polygon points="369 226.82 369.5 234.57 375.64 236.54 375.48 227.16 369 226.82" style="fill: rgb(228, 137, 123); transform-origin: 372.32px 231.68px;" id="eli265jro1lmr" class="animable"></polygon><path d="M361.13,162c.12.58-.09,1.11-.47,1.19s-.78-.33-.9-.91.09-1.12.47-1.19S361,161.39,361.13,162Z" style="fill: rgb(38, 50, 56); transform-origin: 360.445px 162.141px;" id="elo6zknemxos" class="animable"></path><path d="M361.09,163.07a21.26,21.26,0,0,1-1.78,5.53,3.42,3.42,0,0,0,2.88,0Z" style="fill: rgb(222, 87, 83); transform-origin: 360.75px 165.994px;" id="elpi5z88yhdn" class="animable"></path><path d="M359.63,158.41a.36.36,0,0,1-.29-.16.34.34,0,0,1,.11-.48,3.44,3.44,0,0,1,3.17-.09.35.35,0,0,1,.17.46.34.34,0,0,1-.46.17,2.74,2.74,0,0,0-2.51.05A.41.41,0,0,1,359.63,158.41Z" style="fill: rgb(38, 50, 56); transform-origin: 361.052px 157.873px;" id="eliemr3y5pp5" class="animable"></path><path d="M382.28,163c-1.06,5.37-2.11,15.22,1.65,18.81,0,0-1.47,5.45-11.45,5.45-11,0-5.25-5.45-5.25-5.45,6-1.44,5.84-5.88,4.79-10.06Z" style="fill: rgb(228, 137, 123); transform-origin: 374.829px 175.13px;" id="el8fvssy27x2f" class="animable"></path><path d="M365.06,182.83l1.22-2.19s19-3.47,19.53.39a7.39,7.39,0,0,1-.25,2.42Z" style="fill: rgb(243, 85, 94); transform-origin: 375.442px 181.329px;" id="elys40wktrh5s" class="animable"></path><path d="M406.71,411.37a2.36,2.36,0,0,1-1.77-.49.68.68,0,0,1,0-.82.81.81,0,0,1,.54-.41c1.08-.26,3.1,1.14,3.19,1.2a.17.17,0,0,1-.06.31A9.32,9.32,0,0,1,406.71,411.37Zm-.92-1.4a.78.78,0,0,0-.22,0,.48.48,0,0,0-.32.23c-.16.29-.06.41,0,.45.31.41,1.81.42,2.91.24A5.74,5.74,0,0,0,405.79,410Z" style="fill: rgb(243, 85, 94); transform-origin: 406.775px 410.504px;" id="ele4p8x4cgahp" class="animable"></path><path d="M408.58,411.17a.11.11,0,0,1-.08,0c-.76-.41-2.23-2-2.08-2.84a.57.57,0,0,1,.56-.45,1,1,0,0,1,.74.22c.85.7,1,2.82,1,2.91a.16.16,0,0,1-.08.16A.14.14,0,0,1,408.58,411.17Zm-1.48-3H407c-.23,0-.25.13-.26.18-.09.48.85,1.7,1.6,2.27a4.19,4.19,0,0,0-.86-2.3A.64.64,0,0,0,407.1,408.19Z" style="fill: rgb(243, 85, 94); transform-origin: 407.565px 409.526px;" id="eltqtip58ysb" class="animable"></path><path d="M351.69,411.37c-.95,0-1.86-.13-2.16-.56a.66.66,0,0,1,0-.76.88.88,0,0,1,.55-.4c1.23-.34,3.79,1.13,3.9,1.19a.17.17,0,0,1,.09.18.17.17,0,0,1-.14.14A13.12,13.12,0,0,1,351.69,411.37Zm-1.17-1.43a1.66,1.66,0,0,0-.33,0,.55.55,0,0,0-.35.25c-.12.21-.07.32,0,.38.34.48,2.2.49,3.57.29A7.93,7.93,0,0,0,350.52,409.94Z" style="fill: rgb(243, 85, 94); transform-origin: 351.741px 410.485px;" id="eliludrqbklzd" class="animable"></path><path d="M353.91,411.17l-.08,0c-.88-.4-2.64-2-2.5-2.82,0-.19.17-.44.64-.48a1.25,1.25,0,0,1,1,.3c.93.76,1.13,2.74,1.14,2.82a.18.18,0,0,1-.07.16A.21.21,0,0,1,353.91,411.17Zm-1.8-3H352c-.31,0-.33.16-.34.2-.08.5,1.11,1.74,2,2.29a4.18,4.18,0,0,0-1-2.27A1,1,0,0,0,352.11,408.19Z" style="fill: rgb(243, 85, 94); transform-origin: 352.716px 409.515px;" id="elixwtbzlyazf" class="animable"></path><path d="M407.09,411H417a.76.76,0,0,1,.75.52l1.73,6.73a1.16,1.16,0,0,1-1.28,1.34c-3.45,0-5.13-.22-9.47-.22-2.67,0-8.18.24-11.86.24s-4.18-3.14-2.67-3.43c6.78-1.28,9.33-3,11.5-4.71A2.29,2.29,0,0,1,407.09,411Z" style="fill: rgb(38, 50, 56); transform-origin: 406.449px 415.305px;" id="elt4gj4g1wotg" class="animable"></path><path d="M354.69,410.14h8a.63.63,0,0,1,.62.5l1.46,6.53a1.07,1.07,0,0,1-1.06,1.31c-2.9-.05-7.08-.22-10.71-.22-4.26,0-7.93.23-12.92.23-3,0-3.85-3.05-2.59-3.32,5.75-1.26,10.44-1.39,15.41-4.46A3.41,3.41,0,0,1,354.69,410.14Z" style="fill: rgb(38, 50, 56); transform-origin: 350.862px 414.315px;" id="el5v3586ta3cq" class="animable"></path><path d="M364.45,194.62c-3.47,4.07-7,8-10.6,12s-7.28,7.8-11.05,11.63L340,221.07l-.43.42a9.35,9.35,0,0,1-.76.67,10,10,0,0,1-1.57,1,12.13,12.13,0,0,1-3,1.1,25.83,25.83,0,0,1-9.58.12,64.48,64.48,0,0,1-16.07-4.83l1.64-5.27a109.11,109.11,0,0,0,15.12,1.42,31.69,31.69,0,0,0,3.46-.17,11.4,11.4,0,0,0,2.79-.61,3.23,3.23,0,0,0,.73-.39c.05-.05.08-.08.07-.1h0l.1-.11.16-.19,2.58-3,10.36-12c3.47-4,7-8,10.5-11.9Z" style="fill: rgb(228, 137, 123); transform-origin: 336.52px 206px;" id="el7tzhcl9bdde" class="animable"></path><g id="elz3369vaa3vr"><path d="M391.94,197.22l-4.64-1a116.48,116.48,0,0,0,5.5,17.15l6.43-2.57C397.91,207.35,394.57,202.28,391.94,197.22Z" style="fill: rgb(243, 85, 94); opacity: 0.2; transform-origin: 393.265px 204.795px;" class="animable"></path></g><path d="M352.5,200.61c-.21,3.86-.25,8.57,0,14.31l6.83-16.66Z" style="fill: rgb(243, 85, 94); transform-origin: 355.829px 206.59px;" id="els3leaz50pj" class="animable"></path><path d="M311.22,214.8l-5.59-5.37-3.08,9s2.14,2.66,7.31,1.27Z" style="fill: rgb(228, 137, 123); transform-origin: 306.885px 214.766px;" id="elotsbs8yecdb" class="animable"></path><polygon points="301.39 207.57 299.22 215.44 302.55 218.45 305.63 209.43 301.39 207.57" style="fill: rgb(228, 137, 123); transform-origin: 302.425px 213.01px;" id="elyfoms8twe1" class="animable"></polygon><path d="M380.26,156.84c1,7.23,1.95,11.4-.92,15.79-4.31,6.6-13.77,5.1-16.91-1.68-2.82-6.1-4-16.89,2.44-21.13A9.94,9.94,0,0,1,380.26,156.84Z" style="fill: rgb(228, 137, 123); transform-origin: 370.706px 162.509px;" id="elx3ai2y32nge" class="animable"></path><path d="M388.22,153c.1-4.67-3.24-8.07-4.94-7.57-2-8.37-16.3-4.12-16.3-4.12s3.33-4.75-3.13-4.77-4.65,5.15-4.65,5.15-3.93-3.85-6.49.32,3,5.62,3,5.62-4.64-1.07-5.25,5,7.65,1.23,7.65,1.23c1.4,2.58,3.05,3.09,4.65,2.88a3.66,3.66,0,0,1,3.91,2.55c2.31,7,6.73,13.31,13.32,11.38C385.26,169.11,388.07,159.83,388.22,153Z" style="fill: rgb(38, 50, 56); transform-origin: 369.325px 153.781px;" id="el2br0fk1s7jm" class="animable"></path><path d="M371,159.93a8.29,8.29,0,0,1-1.07,5.19c-1.23,2-3.08,1.29-3.78-.76-.63-1.85-.75-5.13,1-6.47S370.71,157.77,371,159.93Z" style="fill: rgb(228, 137, 123); transform-origin: 368.394px 161.819px;" id="elq580v3nv0ih" class="animable"></path><g id="el9khpqm70br9"><path d="M373.11,265.11c-1.22-3.58-3.49.12-5.85,6.09-.83,11.84-1.44,26-.76,37.3C369.23,294.57,375.8,273,373.11,265.11Z" style="opacity: 0.3; transform-origin: 369.976px 286.102px;" class="animable"></path></g><path d="M355.5,247.36s-16,46.11-15.22,68.52c.83,23.3,11.27,85.17,11.27,85.17H364s-1.84-60.51-1.29-83.4c.61-24.95,18.62-70.29,18.62-70.29Z" style="fill: rgb(243, 85, 94); transform-origin: 360.791px 324.205px;" id="eljz5oaxlj4" class="animable"></path><g id="eluj5pvx3kyj"><path d="M355.5,247.36s-16,46.11-15.22,68.52c.83,23.3,11.27,85.17,11.27,85.17H364s-1.84-60.51-1.29-83.4c.61-24.95,18.62-70.29,18.62-70.29Z" style="opacity: 0.6; transform-origin: 360.791px 324.205px;" class="animable"></path></g><path d="M400.83,396.33c-.06,0,2.85,4.93,2.85,4.93h15.14l-1.49-4.93Z" style="fill: rgb(243, 85, 94); transform-origin: 409.825px 398.795px;" id="el5zvgnawar0p" class="animable"></path><path d="M349.15,396.1c-.06,0,.7,5.16.7,5.16H365l.41-4.61Z" style="fill: rgb(243, 85, 94); transform-origin: 357.278px 398.68px;" id="elcjydkhb9qk9" class="animable"></path><path d="M355.93,183.86s-7.82,8.84-.43,63.5h39.29c.27-6-3.52-35.45,2.3-63.87a100.85,100.85,0,0,0-13.16-1.66,140.87,140.87,0,0,0-16.7,0A74.19,74.19,0,0,0,355.93,183.86Z" style="fill: rgb(243, 85, 94); transform-origin: 374.707px 214.471px;" id="el344p6mc7rrx" class="animable"></path><g id="el00j5u8tx7u9cb"><path d="M355.93,183.86s-7.82,8.84-.43,63.5h39.29c.27-6-3.52-35.45,2.3-63.87a100.85,100.85,0,0,0-13.16-1.66,140.87,140.87,0,0,0-16.7,0A74.19,74.19,0,0,0,355.93,183.86Z" style="fill: rgb(255, 255, 255); opacity: 0.7; transform-origin: 374.707px 214.471px;" class="animable"></path></g><path d="M363.76,190.36c-.09,7-13.84,24.13-13.84,24.13L336.58,204.4s4.24-9.64,11-15.73C356.19,180.86,363.86,182.14,363.76,190.36Z" style="fill: rgb(243, 85, 94); transform-origin: 350.17px 198.971px;" id="ele19budj1ckc" class="animable"></path><g id="elo5p3m89fgk8"><path d="M363.76,190.36c-.09,7-13.84,24.13-13.84,24.13L336.58,204.4s4.24-9.64,11-15.73C356.19,180.86,363.86,182.14,363.76,190.36Z" style="fill: rgb(255, 255, 255); opacity: 0.7; transform-origin: 350.17px 198.971px;" class="animable"></path></g></g><defs>     <filter id="active" height="200%">         <feMorphology in="SourceAlpha" result="DILATED" operator="dilate" radius="2"></feMorphology>                <feFlood flood-color="#32DFEC" flood-opacity="1" result="PINK"></feFlood>        <feComposite in="PINK" in2="DILATED" operator="in" result="OUTLINE"></feComposite>        <feMerge>            <feMergeNode in="OUTLINE"></feMergeNode>            <feMergeNode in="SourceGraphic"></feMergeNode>        </feMerge>    </filter>    <filter id="hover" height="200%">        <feMorphology in="SourceAlpha" result="DILATED" operator="dilate" radius="2"></feMorphology>                <feFlood flood-color="#ff0000" flood-opacity="0.5" result="PINK"></feFlood>        <feComposite in="PINK" in2="DILATED" operator="in" result="OUTLINE"></feComposite>        <feMerge>            <feMergeNode in="OUTLINE"></feMergeNode>            <feMergeNode in="SourceGraphic"></feMergeNode>        </feMerge>            <feColorMatrix type="matrix" values="0   0   0   0   0                0   1   0   0   0                0   0   0   0   0                0   0   0   1   0 "></feColorMatrix>    </filter></defs></svg>