<svg class="animated" id="freepik_stories-messages" xmlns="http://www.w3.org/2000/svg" viewBox="0 0 500 500" version="1.1" xmlns:xlink="http://www.w3.org/1999/xlink" xmlns:svgjs="http://svgjs.com/svgjs"><style>svg#freepik_stories-messages:not(.animated) .animable {opacity: 0;}svg#freepik_stories-messages.animated #freepik--Smartphone--inject-2 {animation: 1.0s 1 forwards cubic-bezier(.36,-0.01,.5,1.38) slideUp,1.5s Infinite  linear floating;animation-delay: 0s,1s;}            @keyframes slideUp {                0% {                    opacity: 0;                    transform: translateY(30px);                }                100% {                    opacity: 1;                    transform: inherit;                }            }                    @keyframes floating {                0% {                    opacity: 1;                    transform: translateY(0px);                }                50% {                    transform: translateY(-10px);                }                100% {                    opacity: 1;                    transform: translateY(0px);                }            }        .animator-hidden { display: none; }</style><g id="freepik--background-complete--inject-2" class="animable" style="transform-origin: 250px 226.03px;"><rect y="382.4" width="500" height="0.25" style="fill: rgb(235, 235, 235); transform-origin: 250px 382.525px;" id="elwwhcnw5ym6p" class="animable"></rect><rect x="52.46" y="389.21" width="37.04" height="0.25" style="fill: rgb(235, 235, 235); transform-origin: 70.98px 389.335px;" id="elb52n8mwjz8w" class="animable"></rect><rect x="169" y="394.62" width="71" height="0.25" style="fill: rgb(235, 235, 235); transform-origin: 204.5px 394.745px;" id="elug9l54de3xh" class="animable"></rect><rect x="94.92" y="389.33" width="50.75" height="0.25" style="fill: rgb(235, 235, 235); transform-origin: 120.295px 389.455px;" id="elkvfje3zlldh" class="animable"></rect><rect x="406.78" y="396.81" width="48.67" height="0.25" style="fill: rgb(235, 235, 235); transform-origin: 431.115px 396.935px;" id="elpjj3hy4oqu" class="animable"></rect><rect x="370.36" y="396.81" width="31.97" height="0.25" style="fill: rgb(235, 235, 235); transform-origin: 386.345px 396.935px;" id="el5874hxgtp4r" class="animable"></rect><rect x="277.21" y="392.59" width="62.01" height="0.25" style="fill: rgb(235, 235, 235); transform-origin: 308.215px 392.715px;" id="elqnl53a2wc0c" class="animable"></rect><path d="M237,337.8H43.91a5.71,5.71,0,0,1-5.7-5.71V60.66A5.71,5.71,0,0,1,43.91,55H237a5.71,5.71,0,0,1,5.71,5.71V332.09A5.71,5.71,0,0,1,237,337.8ZM43.91,55.2a5.46,5.46,0,0,0-5.45,5.46V332.09a5.46,5.46,0,0,0,5.45,5.46H237a5.47,5.47,0,0,0,5.46-5.46V60.66A5.47,5.47,0,0,0,237,55.2Z" style="fill: rgb(235, 235, 235); transform-origin: 140.46px 196.4px;" id="elhrfqv40wmxa" class="animable"></path><path d="M453.31,337.8H260.21a5.72,5.72,0,0,1-5.71-5.71V60.66A5.72,5.72,0,0,1,260.21,55h193.1A5.71,5.71,0,0,1,459,60.66V332.09A5.71,5.71,0,0,1,453.31,337.8ZM260.21,55.2a5.47,5.47,0,0,0-5.46,5.46V332.09a5.47,5.47,0,0,0,5.46,5.46h193.1a5.47,5.47,0,0,0,5.46-5.46V60.66a5.47,5.47,0,0,0-5.46-5.46Z" style="fill: rgb(235, 235, 235); transform-origin: 356.75px 196.4px;" id="elu7th419dtlc" class="animable"></path><g id="eldzw4pnox4ur"><path d="M343.88,281.8h78a13.72,13.72,0,0,1,13.72,13.72V365.6a13.72,13.72,0,0,1-13.72,13.72h-78a0,0,0,0,1,0,0V281.8A0,0,0,0,1,343.88,281.8Z" style="fill: rgb(240, 240, 240); transform-origin: 389.74px 330.56px; transform: rotate(180deg);" class="animable" id="elfwxj6yzbgxe"></path></g><g id="elkpm2ba2m6il"><rect x="421.25" y="281.8" width="28.73" height="97.52" rx="13.72" style="fill: rgb(245, 245, 245); transform-origin: 435.615px 330.56px; transform: rotate(-180deg);" class="animable" id="elex551c5rzxi"></rect></g><rect x="254.25" y="317.77" width="170.92" height="61.55" style="fill: rgb(240, 240, 240); transform-origin: 339.71px 348.545px;" id="el1u408gm745d" class="animable"></rect><path d="M433.54,382.4H180.92a2.81,2.81,0,0,1-2.82-2.81v-.27H357.56l78.79.27A2.81,2.81,0,0,1,433.54,382.4Z" style="fill: rgb(224, 224, 224); transform-origin: 307.225px 380.86px;" id="el2etomj7qt8k" class="animable"></path><path d="M197.24,241.34H361.08a19.13,19.13,0,0,1,19.13,19.13v71.21a0,0,0,0,1,0,0H178.1a0,0,0,0,1,0,0V260.47a19.13,19.13,0,0,1,19.13-19.13Z" style="fill: rgb(224, 224, 224); transform-origin: 279.155px 286.51px;" id="elq6rge4weuas" class="animable"></path><path d="M210.36,241.34H376a18.21,18.21,0,0,1,18.21,18.21v72.14a0,0,0,0,1,0,0H192.15a0,0,0,0,1,0,0V259.55A18.21,18.21,0,0,1,210.36,241.34Z" style="fill: rgb(245, 245, 245); transform-origin: 293.18px 286.515px;" id="el9vhx0y67mfi" class="animable"></path><path d="M417,312.15H267.26a8.64,8.64,0,0,0-8.64,8.64v7.79a8.64,8.64,0,0,0,8.64,8.64H417a12.53,12.53,0,0,0,12.53-12.54h0A12.53,12.53,0,0,0,417,312.15Z" style="fill: rgb(224, 224, 224); transform-origin: 344.075px 324.685px;" id="elrtesmwaqpo" class="animable"></path><g id="elp9b477lqd3"><path d="M162.06,281.8h78a13.72,13.72,0,0,1,13.72,13.72V365.6a13.72,13.72,0,0,1-13.72,13.72h-78a0,0,0,0,1,0,0V281.8A0,0,0,0,1,162.06,281.8Z" style="fill: rgb(240, 240, 240); transform-origin: 207.92px 330.56px; transform: rotate(180deg);" class="animable" id="elkabm8q5e97"></path></g><g id="el8yp05dtztp9"><rect x="239.44" y="281.8" width="28.73" height="97.52" rx="13.72" style="fill: rgb(245, 245, 245); transform-origin: 253.805px 330.56px; transform: rotate(180deg);" class="animable" id="el6143xarny4b"></rect></g><rect x="330.43" y="92.52" width="70.63" height="103.86" style="fill: rgb(224, 224, 224); transform-origin: 365.745px 144.45px;" id="eleyh0a3k2acg" class="animable"></rect><rect x="332.36" y="92.52" width="72.95" height="103.86" style="fill: rgb(245, 245, 245); transform-origin: 368.835px 144.45px;" id="elv2pt610fmhl" class="animable"></rect><g id="el9y9r2yz95ka"><rect x="325.09" y="114.08" width="87.49" height="60.73" style="fill: rgb(255, 255, 255); transform-origin: 368.835px 144.445px; transform: rotate(-90deg);" class="animable" id="elvxyslwti34"></rect></g><path d="M361.28,148.67v6.66h0a15.11,15.11,0,0,0,15.11-15.11v-6.66h0A15.1,15.1,0,0,0,361.28,148.67Z" style="fill: rgb(245, 245, 245); transform-origin: 368.835px 144.445px;" id="eljhfqiulmy3" class="animable"></path><path d="M361.28,126.21v6.66h0a15.12,15.12,0,0,0,15.11-15.11v-6.67h0A15.11,15.11,0,0,0,361.28,126.21Z" style="fill: rgb(245, 245, 245); transform-origin: 368.835px 121.98px;" id="elhapl6doy6xl" class="animable"></path><path d="M361.28,171.14v6.66h0a15.12,15.12,0,0,0,15.11-15.12V156h0A15.11,15.11,0,0,0,361.28,171.14Z" style="fill: rgb(245, 245, 245); transform-origin: 368.835px 166.9px;" id="eliv7siue54uq" class="animable"></path><g id="elyp1yl5aksg"><rect x="144.19" y="22.01" width="73.28" height="230.66" style="fill: rgb(235, 235, 235); transform-origin: 180.83px 137.34px; transform: rotate(90deg);" class="animable" id="elzh5g7q7c8xt"></rect></g><g id="elnmvtbvs6adj"><rect x="28.16" y="136.65" width="73.28" height="1.39" style="fill: rgb(224, 224, 224); transform-origin: 64.8px 137.345px; transform: rotate(90deg);" class="animable" id="el1qsxn4r932f"></rect></g><rect x="76.87" y="112.07" width="207.92" height="50.54" style="fill: rgb(245, 245, 245); transform-origin: 180.83px 137.34px;" id="elcan615tsjn6" class="animable"></rect><polygon points="126.7 162.61 109.43 162.61 122.95 112.07 140.22 112.07 126.7 162.61" style="fill: rgb(255, 255, 255); transform-origin: 124.825px 137.34px;" id="elrbwcn1wawp" class="animable"></polygon><polygon points="142.76 162.61 132.77 162.61 146.29 112.07 156.28 112.07 142.76 162.61" style="fill: rgb(255, 255, 255); transform-origin: 144.525px 137.34px;" id="elvwwyw9s7qzn" class="animable"></polygon><polygon points="229.69 162.61 219.7 162.61 233.22 112.07 243.21 112.07 229.69 162.61" style="fill: rgb(255, 255, 255); transform-origin: 231.455px 137.34px;" id="elasbii3d49fe" class="animable"></polygon><polygon points="155.32 298.59 99.41 298.59 92.49 222.63 148.41 222.63 155.32 298.59" style="fill: rgb(230, 230, 230); transform-origin: 123.905px 260.61px;" id="elm2alvrvnnhc" class="animable"></polygon><polygon points="158.22 298.59 102.3 298.59 95.39 222.63 151.31 222.63 158.22 298.59" style="fill: rgb(240, 240, 240); transform-origin: 126.805px 260.61px;" id="elgj96mpjd1ik" class="animable"></polygon><polygon points="109.94 290.18 104.56 231.04 143.66 231.04 149.04 290.18 109.94 290.18" style="fill: rgb(255, 255, 255); transform-origin: 126.8px 260.61px;" id="elu4fv09462vp" class="animable"></polygon><rect x="189.7" y="298.59" width="7.53" height="83.8" style="fill: rgb(230, 230, 230); transform-origin: 193.465px 340.49px;" id="elx7nfdmxoob" class="animable"></rect><rect x="194.37" y="298.59" width="5.23" height="83.8" style="fill: rgb(245, 245, 245); transform-origin: 196.985px 340.49px;" id="el2hf4xxljpav" class="animable"></rect><g id="el82drtb914on"><rect x="121.76" y="298.59" width="79.46" height="9.25" style="fill: rgb(245, 245, 245); transform-origin: 161.49px 303.215px; transform: rotate(180deg);" class="animable" id="elfj8hdh38jmj"></rect></g><rect x="110.86" y="307.84" width="7.53" height="74.56" style="fill: rgb(230, 230, 230); transform-origin: 114.625px 345.12px;" id="el663n1xz0bl3" class="animable"></rect><rect x="115.54" y="307.84" width="5.23" height="74.56" style="fill: rgb(245, 245, 245); transform-origin: 118.155px 345.12px;" id="elybw3indgyyk" class="animable"></rect><rect x="63.22" y="307.84" width="7.53" height="74.56" style="fill: rgb(230, 230, 230); transform-origin: 66.985px 345.12px;" id="eln5cf0qcqvm" class="animable"></rect><rect x="67.9" y="307.84" width="5.23" height="74.56" style="fill: rgb(245, 245, 245); transform-origin: 70.515px 345.12px;" id="ellwfmmv5wffl" class="animable"></rect><rect x="142.06" y="307.84" width="7.53" height="74.56" style="fill: rgb(230, 230, 230); transform-origin: 145.825px 345.12px;" id="elrl2osuv94th" class="animable"></rect><rect x="146.73" y="307.84" width="5.23" height="74.56" style="fill: rgb(245, 245, 245); transform-origin: 149.345px 345.12px;" id="el8pfp19nbsmv" class="animable"></rect><rect x="63.22" y="298.59" width="58.54" height="9.25" style="fill: rgb(230, 230, 230); transform-origin: 92.49px 303.215px;" id="elc7bhi2fzy26" class="animable"></rect></g><g id="freepik--Shadow--inject-2" class="animable" style="transform-origin: 250px 416.24px;"><ellipse id="freepik--path--inject-2" cx="250" cy="416.24" rx="193.89" ry="11.32" style="fill: rgb(245, 245, 245); transform-origin: 250px 416.24px;" class="animable"></ellipse></g><g id="freepik--Character--inject-2" class="animable animator-hidden" style="transform-origin: 294.988px 278.087px;"><path d="M312.78,143.09c-3.72-2.33-14.41,0-12.64,11.73s-12,8.7-9,22.31,27.36,33.81,42.36,20.09,2.37-19.78,2.64-36.06C336.31,151.48,331.92,134.15,312.78,143.09Z" style="fill: rgb(38, 50, 56); transform-origin: 315.783px 171.202px;" id="elm2ad0yk367s" class="animable"></path><path d="M334.88,196.63a.23.23,0,0,1-.17-.08.24.24,0,0,1,0-.35c9.24-9.18,7.11-14.77,4.4-21.85-1.49-3.92-3.18-8.35-3.32-14.11-.15-6.21-2.42-14.7-8.34-18.2-4.19-2.48-9.57-2-16,1.27a.25.25,0,0,1-.34-.1.26.26,0,0,1,.11-.34c6.58-3.41,12.12-3.83,16.47-1.26,6.09,3.6,8.43,12.28,8.58,18.62.13,5.67,1.81,10.06,3.29,13.94,2.77,7.25,4.95,13-4.52,22.38A.25.25,0,0,1,334.88,196.63Z" style="fill: rgb(38, 50, 56); transform-origin: 326.509px 168.292px;" id="el8vq556zc5mh" class="animable"></path><path d="M337,195.3s.15.22.26.36l.4.53q.42.54.9,1.08a25.76,25.76,0,0,0,2.09,2.09,34.32,34.32,0,0,0,4.83,3.71,49.05,49.05,0,0,0,5.48,3c.94.48,1.94.86,2.91,1.29.18.08,0,0-.12.08s-.24.14-.13.08a4.15,4.15,0,0,0,1.11-1.49,18.85,18.85,0,0,0,1.1-2.66,54,54,0,0,0,1.59-6.2c.44-2.15.78-4.35,1.08-6.56s.58-4.45.82-6.64l4,0a89.54,89.54,0,0,1-.1,14,48.31,48.31,0,0,1-1.1,7.17,23.83,23.83,0,0,1-1.21,3.74,11.11,11.11,0,0,1-2.78,4,6.68,6.68,0,0,1-3.17,1.53,6.79,6.79,0,0,1-3.47-.3c-1.15-.41-2.31-.75-3.44-1.22a48.18,48.18,0,0,1-6.64-3.2,41.86,41.86,0,0,1-6.11-4.41,30.8,30.8,0,0,1-2.74-2.74c-.43-.49-.86-1-1.27-1.54l-.6-.86a11.06,11.06,0,0,1-.66-1.06Z" style="fill: rgb(255, 195, 189); transform-origin: 346.788px 199.241px;" id="elvxuy16wuo2" class="animable"></path><path d="M335.68,191.68c9.11,5.82,8.37,9.41,8.37,9.41l-5.73,8.29s-14.6-5.86-15.53-10.44C321.83,194.17,331.26,188.86,335.68,191.68Z" style="fill: rgb(38, 50, 56); transform-origin: 333.393px 200.137px;" id="el7w8yvfqru7x" class="animable"></path><g id="elwx15flfyo1b"><path d="M335.68,191.68c9.11,5.82,8.37,9.41,8.37,9.41l-5.73,8.29s-14.6-5.86-15.53-10.44C321.83,194.17,331.26,188.86,335.68,191.68Z" style="fill: rgb(255, 255, 255); opacity: 0.1; transform-origin: 333.393px 200.137px;" class="animable" id="el1otmlc4a9gc"></path></g><path d="M344.55,200.27h0a.77.77,0,0,1,.19,1.08l-5.87,8.4a.77.77,0,0,1-1.08.19h0a.78.78,0,0,1-.2-1.09l5.87-8.39A.78.78,0,0,1,344.55,200.27Z" style="fill: #E15353; transform-origin: 341.166px 205.105px;" id="elrc1t0yrop7b" class="animable"></path><path d="M360,185.89l-4.52-6,8.68-2.24s1.76,5.39-1.12,9.33Z" style="fill: rgb(255, 195, 189); transform-origin: 360.086px 182.315px;" id="elprbytz3jbva" class="animable"></path><polygon points="355.74 172.42 362.96 171.2 364.18 177.61 355.5 179.85 355.74 172.42" style="fill: rgb(255, 195, 189); transform-origin: 359.84px 175.525px;" id="elz6xmfayeu8b" class="animable"></polygon><polygon points="282.26 407.82 290.53 408.61 296.43 389.19 288.17 388.39 282.26 407.82" style="fill: rgb(255, 195, 189); transform-origin: 289.345px 398.5px;" id="elrly06mrqcoo" class="animable"></polygon><polygon points="229.68 379.1 235.81 384.85 249.04 370.31 242.91 364.55 229.68 379.1" style="fill: rgb(255, 195, 189); transform-origin: 239.36px 374.7px;" id="elz5yh8mfmdx8" class="animable"></polygon><path d="M238.64,382.09l-4.61-8.3a.67.67,0,0,0-.83-.31l-7.09,2.7a1.37,1.37,0,0,0-.66,1.91c1.66,2.87,2.6,4.17,4.63,7.82,1.25,2.25,3.67,7.4,5.39,10.5s4.88,1.56,4.44.12c-2-6.48-1.59-10.09-1-12.95A2.18,2.18,0,0,0,238.64,382.09Z" style="fill: rgb(38, 50, 56); transform-origin: 232.618px 385.824px;" id="elk6fksad37m" class="animable"></path><path d="M291.5,406.09h-10a.83.83,0,0,0-.79.61l-2.18,7.93a1.25,1.25,0,0,0,1.22,1.59c3.53,0,5.21,0,9.62,0h13.47c3.66,0,4.43-3.7,2.91-4-6.79-1.51-10.71-3.58-12.81-5.56A2,2,0,0,0,291.5,406.09Z" style="fill: rgb(38, 50, 56); transform-origin: 292.484px 411.155px;" id="elevzda71msgh" class="animable"></path><g id="eloedm7j0njvn"><polygon points="296.43 389.19 293.39 399.21 284.87 399.21 288.16 388.39 296.43 389.19" style="opacity: 0.2; transform-origin: 290.65px 393.8px;" class="animable" id="el0rbummdbnc4g"></polygon></g><g id="elepdfrc91va"><polygon points="242.91 364.55 249.04 370.31 242.22 377.81 236.09 372.05 242.91 364.55" style="opacity: 0.2; transform-origin: 242.565px 371.18px;" class="animable" id="elqcgg4isv7ni"></polygon></g><path d="M335.68,191.68S339,193.94,318,239.57l-33.07-9.16c4.28-13.3,6.59-21.6,7.81-51a101.72,101.72,0,0,1,14.55,2,110.42,110.42,0,0,1,15,4.16A146.07,146.07,0,0,1,335.68,191.68Z" style="fill: rgb(38, 50, 56); transform-origin: 310.401px 209.49px;" id="el4heiuu753pl" class="animable"></path><g id="elfkctwq25qsw"><path d="M335.68,191.68S339,193.94,318,239.57l-33.07-9.16c4.28-13.3,6.59-21.6,7.81-51a101.72,101.72,0,0,1,14.55,2,110.42,110.42,0,0,1,15,4.16A146.07,146.07,0,0,1,335.68,191.68Z" style="fill: rgb(255, 255, 255); opacity: 0.1; transform-origin: 310.401px 209.49px;" class="animable" id="eltb6i9uy2myq"></path></g><path d="M313.45,165c-.39,5.09-1.9,14.21-6.17,16.49,0,0-2.48,8.46,8.3,11.56,9.13,2.63,6.72-7.4,6.72-7.4-5-2.78-1.92-7.7-1-13.21Z" style="fill: rgb(255, 195, 189); transform-origin: 314.811px 179.245px;" id="elgl509be8w4" class="animable"></path><g id="el010s44wny4nq"><path d="M313.45,165c-.31,4.09-1.34,10.79-4,14.44,3,.3,7.84-.63,9.2-2.89a33.09,33.09,0,0,0,1.69-5Z" style="opacity: 0.2; transform-origin: 314.895px 172.247px;" class="animable" id="el565d5tp10a8"></path></g><path d="M326.83,157.57c0,8.38.14,11.93-3.83,16.47-6,6.82-16.26,5-18.74-3.26-2.24-7.41-1.82-19.88,6.16-23.68A11.44,11.44,0,0,1,326.83,157.57Z" style="fill: rgb(255, 195, 189); transform-origin: 314.959px 162.094px;" id="el1r31b26x1dl" class="animable"></path><path d="M309.49,152.92c4.7,6.57,20.54,15.72,21.6,6.91s-7-17.52-15-16.68S305.48,147.32,309.49,152.92Z" style="fill: rgb(38, 50, 56); transform-origin: 319.408px 153.28px;" id="ell9bx0zo7s8d" class="animable"></path><path d="M330.3,165.39a6.13,6.13,0,0,1-3.52,3.09c-2,.68-3.16-1.12-2.68-3.1.43-1.78,2-4.28,4.11-4.1A2.75,2.75,0,0,1,330.3,165.39Z" style="fill: rgb(255, 195, 189); transform-origin: 327.33px 164.949px;" id="el1d2vnmo5crr" class="animable"></path><path d="M318,239.57s11.77,47.69,4.05,83.76c-5.17,24.16-23.82,73-23.82,73l-14.59-.37s14.12-51.22,17-71.37c5-34.45-6.9-91.7-6.9-91.7Z" style="fill: #E15353; transform-origin: 304.157px 314.61px;" id="elh05ls9wk30b" class="animable"></path><g id="el7l3212d2n9q"><path d="M304.86,246.42l-7.3,11.5a350.84,350.84,0,0,1,4.18,41.19C312,280.76,307.14,256.14,304.86,246.42Z" style="opacity: 0.2; transform-origin: 302.792px 272.765px;" class="animable" id="elsie5r8sb4vs"></path></g><polygon points="300.82 397.06 282.26 396.6 283.5 390 302.18 391.4 300.82 397.06" style="fill: rgb(38, 50, 56); transform-origin: 292.22px 393.53px;" id="elhsadkfo6wfa" class="animable"></polygon><path d="M310.74,237.67s-6.81,52.14-21.52,81.77c-11.88,23.93-43.58,58-43.58,58l-8.11-8.35s21.42-37,30.25-52.92c21.65-39,2.46-73.92,17.14-85.75Z" style="fill: #E15353; transform-origin: 274.135px 303.93px;" id="elcl3pxeu2ax" class="animable"></path><polygon points="246.46 378.55 236 368.35 239.47 363.63 250.87 375.42 246.46 378.55" style="fill: rgb(38, 50, 56); transform-origin: 243.435px 371.09px;" id="elcgck9i3fz0m" class="animable"></polygon><path d="M285,228.34l-2.31,2.54c-.18.2,0,.51.41.62l34.68,9.6c.3.08.59,0,.66-.18l1.12-2.88c.07-.2-.14-.44-.46-.53l-33.49-9.27A.61.61,0,0,0,285,228.34Z" style="fill: #E15353; transform-origin: 301.097px 234.665px;" id="ell3566ew6unk" class="animable"></path><g id="elodqt3kqgoej"><path d="M285,228.34l-2.31,2.54c-.18.2,0,.51.41.62l34.68,9.6c.3.08.59,0,.66-.18l1.12-2.88c.07-.2-.14-.44-.46-.53l-33.49-9.27A.61.61,0,0,0,285,228.34Z" style="fill: rgb(255, 255, 255); opacity: 0.5; transform-origin: 301.097px 234.665px;" class="animable" id="el3um60d1gknt"></path></g><path d="M288.42,233.33l-.9-.25c-.18-.05-.29-.18-.24-.29l1.48-3.73a.35.35,0,0,1,.41-.11l.89.25c.18.05.29.18.25.29l-1.49,3.73C288.78,233.33,288.6,233.38,288.42,233.33Z" style="fill: #E15353; transform-origin: 288.793px 231.137px;" id="elskhukl921th" class="animable"></path><path d="M315.13,240.72l-.9-.25c-.17-.05-.28-.18-.24-.29l1.48-3.73a.36.36,0,0,1,.41-.1l.9.24c.17,0,.28.18.24.29l-1.48,3.73A.35.35,0,0,1,315.13,240.72Z" style="fill: #E15353; transform-origin: 315.505px 238.535px;" id="elc31wyx42d9v" class="animable"></path><path d="M301.78,237l-.9-.25c-.18,0-.29-.17-.25-.28l1.49-3.73c0-.11.22-.16.4-.11l.9.25c.18,0,.29.18.24.29l-1.48,3.72C302.14,237,302,237.07,301.78,237Z" style="fill: #E15353; transform-origin: 302.147px 234.819px;" id="elim4ys3geul" class="animable"></path><path d="M314.29,160.65c0,.68-.29,1.25-.73,1.27s-.84-.5-.88-1.18.29-1.25.73-1.28S314.25,160,314.29,160.65Z" style="fill: rgb(38, 50, 56); transform-origin: 313.483px 160.69px;" id="el5ydlcwrjt5p" class="animable"></path><path d="M306.6,161.1c0,.68-.29,1.25-.73,1.28s-.84-.51-.88-1.19.29-1.25.73-1.28S306.56,160.42,306.6,161.1Z" style="fill: rgb(38, 50, 56); transform-origin: 305.793px 161.145px;" id="elk3xd7kfddsg" class="animable"></path><path d="M305.92,159.94l-1.66-.38S305.17,160.79,305.92,159.94Z" style="fill: rgb(38, 50, 56); transform-origin: 305.09px 159.9px;" id="el03ohb2ednjhp" class="animable"></path><path d="M308.7,162.15a18.15,18.15,0,0,1-2.17,4.48,2.9,2.9,0,0,0,2.45.31Z" style="fill: rgb(237, 132, 126); transform-origin: 307.755px 164.616px;" id="elihuc3b2rr2" class="animable"></path><path d="M312.77,169.26a7.34,7.34,0,0,1-1.24.19.17.17,0,0,1-.17-.16.15.15,0,0,1,.15-.17,5.42,5.42,0,0,0,4.3-2.39.19.19,0,0,1,.23-.06.17.17,0,0,1,.06.23A5.58,5.58,0,0,1,312.77,169.26Z" style="fill: rgb(38, 50, 56); transform-origin: 313.741px 168.052px;" id="el98ymnh9zwyd" class="animable"></path><path d="M316.84,155.67a.32.32,0,0,1-.31-.08,3.27,3.27,0,0,0-2.8-1,.33.33,0,1,1-.15-.65,3.9,3.9,0,0,1,3.41,1.13.34.34,0,0,1,0,.47A.29.29,0,0,1,316.84,155.67Z" style="fill: rgb(38, 50, 56); transform-origin: 315.202px 154.786px;" id="el70k3ynb36eo" class="animable"></path><path d="M303.25,156.66a.34.34,0,0,1-.41-.5A3.93,3.93,0,0,1,306,154.5a.34.34,0,0,1,0,.67,3.18,3.18,0,0,0-2.61,1.39A.41.41,0,0,1,303.25,156.66Z" style="fill: rgb(38, 50, 56); transform-origin: 304.534px 155.592px;" id="eld35xy84bsej" class="animable"></path><path d="M293.5,192c-.85,1.28-1.63,2.31-2.49,3.41s-1.72,2.11-2.61,3.13a74.54,74.54,0,0,1-5.73,5.79,62.08,62.08,0,0,1-6.38,5.14c-1.1.82-2.28,1.54-3.43,2.28l-1.8,1-.9.51c-.33.17-.76.4-1.17.57a10,10,0,0,1-5.77.76,10.9,10.9,0,0,1-5-2.38,17.11,17.11,0,0,1-3.17-3.49,27.47,27.47,0,0,1-2.2-3.72,56.64,56.64,0,0,1-4.76-15.48l3.86-.9c.8,2.32,1.71,4.72,2.73,7a47.36,47.36,0,0,0,3.39,6.49,16.91,16.91,0,0,0,4.21,4.85,4,4,0,0,0,2,.79,3.25,3.25,0,0,0,1.78-.43c.18-.09.31-.18.55-.32l.76-.49,1.51-1c1-.73,2-1.39,2.92-2.17a71.45,71.45,0,0,0,5.52-4.79c1.78-1.69,3.45-3.49,5.06-5.34.81-.93,1.59-1.87,2.35-2.82s1.53-2,2.13-2.82Z" style="fill: rgb(255, 195, 189); transform-origin: 270.795px 201.147px;" id="el2gwl1wxx1gp" class="animable"></path><path d="M252.76,192.21l.85-9.09-8.17,3.34s1,4.57,4.08,6.21Z" style="fill: rgb(255, 195, 189); transform-origin: 249.525px 187.895px;" id="el66bf8xvpqju" class="animable"></path><polygon points="251 178.21 244.67 176.83 245.44 186.46 253.61 183.12 251 178.21" style="fill: rgb(255, 195, 189); transform-origin: 249.14px 181.645px;" id="elba9biu4i6xj" class="animable"></polygon><path d="M292.73,179.41c-4.26,0-14.52,16.26-14.52,16.26l7.25,7.5s13.62-9.2,14.17-14.66C300.11,183.89,298.15,179.45,292.73,179.41Z" style="fill: rgb(38, 50, 56); transform-origin: 288.955px 191.29px;" id="eleqt746y1q5o" class="animable"></path><g id="el72y12hkswi2"><path d="M292.73,179.41c-4.26,0-14.52,16.26-14.52,16.26l7.25,7.5s13.62-9.2,14.17-14.66C300.11,183.89,298.15,179.45,292.73,179.41Z" style="fill: rgb(255, 255, 255); opacity: 0.1; transform-origin: 288.955px 191.29px;" class="animable" id="elobompkg1teg"></path></g><path d="M286.13,203.5h0a.79.79,0,0,1-1.11,0l-7.31-7.17a.79.79,0,0,1,0-1.11h0a.78.78,0,0,1,1.1,0l7.32,7.17A.8.8,0,0,1,286.13,203.5Z" style="fill: #E15353; transform-origin: 281.918px 199.36px;" id="el47w8vthc2zs" class="animable"></path><path d="M240.26,386.55a1.22,1.22,0,0,0,.73-.27.67.67,0,0,0,.29-.59c-.09-1.06-2.77-2.49-3.07-2.65a.19.19,0,0,0-.19,0,.17.17,0,0,0-.05.18c.3,1.08,1,2.93,2,3.27A1.26,1.26,0,0,0,240.26,386.55Zm-1.86-3c.92.53,2.49,1.54,2.54,2.19a.3.3,0,0,1-.15.3.78.78,0,0,1-.75.17C239.47,386,238.87,385,238.4,383.52Z" style="fill: #E15353; transform-origin: 239.621px 384.782px;" id="elog32ch8hi5" class="animable"></path><path d="M240.67,383.94a1.87,1.87,0,0,0,1.2-.3.64.64,0,0,0,.15-.82,1,1,0,0,0-.62-.59c-1.14-.41-3.26.76-3.35.81a.17.17,0,0,0-.09.14.18.18,0,0,0,.08.15A6.07,6.07,0,0,0,240.67,383.94Zm.16-1.47a1.35,1.35,0,0,1,.46.07.7.7,0,0,1,.43.41c.1.25,0,.37-.06.44-.5.42-2.26.18-3.16-.21A6.27,6.27,0,0,1,240.83,382.47Z" style="fill: #E15353; transform-origin: 240.034px 383.045px;" id="elzvmu2tzuzsr" class="animable"></path><path d="M296,407.71a3.35,3.35,0,0,0,1.94-.46,1.22,1.22,0,0,0,.49-.94.53.53,0,0,0-.24-.51c-.91-.62-4.55,1.06-5,1.25a.17.17,0,0,0-.09.17.17.17,0,0,0,.12.15A13.57,13.57,0,0,0,296,407.71Zm1.6-1.72a.76.76,0,0,1,.41.08.23.23,0,0,1,.09.22.93.93,0,0,1-.36.7c-.83.62-2.82.36-3.9.15A12.54,12.54,0,0,1,297.55,406Z" style="fill: #E15353; transform-origin: 295.766px 406.691px;" id="elbggw4cgmcum" class="animable"></path><path d="M293.25,407.37h.06c1.1-.45,3.39-2.29,3.27-3.2,0-.2-.16-.45-.66-.5-2-.23-2.8,3.35-2.83,3.51a.16.16,0,0,0,.05.16A.15.15,0,0,0,293.25,407.37Zm2.49-3.39h.14c.34,0,.36.17.37.21.08.58-1.56,2.08-2.75,2.7C293.75,406.06,294.48,404,295.74,404Z" style="fill: #E15353; transform-origin: 294.835px 405.515px;" id="elr03xugoxrmq" class="animable"></path><path d="M313.61,159.49l-1.66-.38S312.86,160.34,313.61,159.49Z" style="fill: rgb(38, 50, 56); transform-origin: 312.78px 159.45px;" id="elbt9ndpbxo9n" class="animable"></path></g><g id="freepik--Smartphone--inject-2" class="animable" style="transform-origin: 202.943px 242.797px;"><g id="elrkadbgb3zl"><rect x="119.49" y="117.83" width="137.86" height="291.16" rx="13.96" style="fill: #E15353; transform-origin: 188.42px 263.41px; transform: rotate(170.53deg);" class="animable" id="elt4ojkylwt7b"></rect></g><path d="M113,221.33h0a3.88,3.88,0,0,0,3.19-4.46l-5.74-34.38a3.88,3.88,0,0,0-4.45-3.18h0a3.89,3.89,0,0,0-3.19,4.46l5.74,34.38A3.88,3.88,0,0,0,113,221.33Z" style="fill: #E15353; transform-origin: 109.501px 200.32px;" id="elmt5abzfvuq" class="animable"></path><g id="elokt94219w2"><rect x="239.99" y="156.56" width="7.11" height="27.02" rx="2.95" style="fill: rgb(38, 50, 56); transform-origin: 243.545px 170.07px; transform: rotate(170.53deg);" class="animable" id="elpzofogg7yf"></rect></g><g id="el0zbftzd5dan"><rect x="245.86" y="191.8" width="7.11" height="27.02" rx="2.95" style="fill: rgb(38, 50, 56); transform-origin: 249.415px 205.31px; transform: rotate(170.53deg);" class="animable" id="elozher7dm4m"></rect></g><g id="elss5h1unz02"><rect x="121.78" y="117.45" width="137.86" height="291.16" rx="13.96" style="fill: rgb(38, 50, 56); transform-origin: 190.71px 263.03px; transform: rotate(170.53deg);" class="animable" id="el82zfksdc8re"></rect></g><g id="elb3lw805ls3t"><path d="M148,400.23l127.66-21.29a2.55,2.55,0,0,0,2.09-2.93l-41.3-247.63a2.55,2.55,0,0,0-2.93-2.09L105.86,147.58a2.55,2.55,0,0,0-2.1,2.93l41.3,247.63A2.55,2.55,0,0,0,148,400.23Z" style="fill: #E15353; opacity: 0.4; transform-origin: 190.755px 263.261px;" class="animable" id="elxwww50t1b1h"></path></g><g id="elwnsldhlmfk"><polygon points="216.66 129.1 220.68 388.11 194 392.56 189.98 133.55 216.66 129.1" style="fill: #E15353; opacity: 0.3; transform-origin: 205.33px 260.83px;" class="animable" id="el3vl4lq7frlc"></polygon></g><g id="eloem2i30xud"><rect x="153.13" y="125.78" width="29.95" height="3.44" rx="1.19" style="fill: rgb(255, 255, 255); opacity: 0.2; transform-origin: 168.105px 127.5px; transform: rotate(-9.47deg);" class="animable" id="eluc2cclx0sp"></rect></g><path d="M162.14,222.17H296.26a13.19,13.19,0,0,1,13.15,13.16V301.1a13.19,13.19,0,0,1-13.15,13.16H249.85L229.2,334.91l-20.65-20.65H162.14A13.19,13.19,0,0,1,149,301.1V235.33A13.19,13.19,0,0,1,162.14,222.17Z" style="fill: #E15353; transform-origin: 229.205px 278.54px;" id="el1nz1ixgpd4t" class="animable"></path><g id="eli21ktfbp94q"><path d="M162.14,222.17H296.26a13.19,13.19,0,0,1,13.15,13.16V301.1a13.19,13.19,0,0,1-13.15,13.16H249.85L229.2,334.91l-20.65-20.65H162.14A13.19,13.19,0,0,1,149,301.1V235.33A13.19,13.19,0,0,1,162.14,222.17Z" style="fill: rgb(255, 255, 255); opacity: 0.3; transform-origin: 229.205px 278.54px;" class="animable" id="elsjnjctjr7i"></path></g><path d="M170.74,245v46.49a6.82,6.82,0,0,0,6.73,6.88H280.93a6.82,6.82,0,0,0,6.73-6.88V245a6.84,6.84,0,0,0-.5-2.57,6.73,6.73,0,0,0-6.23-4.31H177.47a6.74,6.74,0,0,0-6.23,4.3A6.93,6.93,0,0,0,170.74,245Z" style="fill: rgb(255, 255, 255); transform-origin: 229.2px 268.245px;" id="elypi6xoca44" class="animable"></path><g id="elc86ouv52kqs"><path d="M171.24,242.39l50,21.79a19.87,19.87,0,0,0,15.89,0l50-21.78a6.73,6.73,0,0,0-6.23-4.31H177.47A6.74,6.74,0,0,0,171.24,242.39Z" style="opacity: 0.1; transform-origin: 229.185px 251.964px;" class="animable" id="eld4tkl4b9soq"></path></g><g id="elgxz16ml042"><circle cx="162.26" cy="230.94" r="24.26" style="fill: #E15353; transform-origin: 162.26px 230.94px; transform: rotate(-45deg);" class="animable" id="elfuc7272tdnh"></circle></g><path d="M166.94,245.73h-5.65V224.44a19.47,19.47,0,0,1-7.3,4.28V223.6a16.21,16.21,0,0,0,4.81-2.75,10.38,10.38,0,0,0,3.55-4.71h4.59Z" style="fill: rgb(255, 255, 255); transform-origin: 160.465px 230.935px;" id="elxlxijgvvtrb" class="animable"></path><path d="M271.85,104.05a2.91,2.91,0,0,1-2.86-2.47,33.57,33.57,0,0,0-38.14-28.17,2.9,2.9,0,1,1-.86-5.73,39.37,39.37,0,0,1,44.74,33,2.9,2.9,0,0,1-2.44,3.3A2.18,2.18,0,0,1,271.85,104.05Z" style="fill: #E15353; transform-origin: 251.077px 85.6487px;" id="elshyfqphfr5e" class="animable"></path><path d="M257.45,106.21a2.91,2.91,0,0,1-2.87-2.47A19,19,0,0,0,233,87.82a2.9,2.9,0,0,1-.87-5.74,24.79,24.79,0,0,1,28.17,20.8,2.9,2.9,0,0,1-2.44,3.3A3.11,3.11,0,0,1,257.45,106.21Z" style="fill: #E15353; transform-origin: 244.997px 94.0091px;" id="elfcwv2d7q2ks" class="animable"></path><path d="M243,108.38a2.91,2.91,0,0,1-2.87-2.47,4.38,4.38,0,0,0-5-3.68,2.9,2.9,0,0,1-.87-5.74,10.19,10.19,0,0,1,11.59,8.56,2.9,2.9,0,0,1-2.44,3.3A3.11,3.11,0,0,1,243,108.38Z" style="fill: #E15353; transform-origin: 238.837px 102.378px;" id="ely4vqk2phb3" class="animable"></path></g><defs>     <filter id="active" height="200%">         <feMorphology in="SourceAlpha" result="DILATED" operator="dilate" radius="2"></feMorphology>                <feFlood flood-color="#32DFEC" flood-opacity="1" result="PINK"></feFlood>        <feComposite in="PINK" in2="DILATED" operator="in" result="OUTLINE"></feComposite>        <feMerge>            <feMergeNode in="OUTLINE"></feMergeNode>            <feMergeNode in="SourceGraphic"></feMergeNode>        </feMerge>    </filter>    <filter id="hover" height="200%">        <feMorphology in="SourceAlpha" result="DILATED" operator="dilate" radius="2"></feMorphology>                <feFlood flood-color="#ff0000" flood-opacity="0.5" result="PINK"></feFlood>        <feComposite in="PINK" in2="DILATED" operator="in" result="OUTLINE"></feComposite>        <feMerge>            <feMergeNode in="OUTLINE"></feMergeNode>            <feMergeNode in="SourceGraphic"></feMergeNode>        </feMerge>            <feColorMatrix type="matrix" values="0   0   0   0   0                0   1   0   0   0                0   0   0   0   0                0   0   0   1   0 "></feColorMatrix>    </filter></defs></svg>