<?xml version="1.0"?>
<svg xmlns="http://www.w3.org/2000/svg" xmlns:xlink="http://www.w3.org/1999/xlink" version="1.1" id="Capa_1" x="0px" y="0px" viewBox="0 0 512 512" style="enable-background:new 0 0 512 512;" xml:space="preserve" width="512px" height="512px" class=""><g><path style="fill:#E7E7E7" d="M256,0L30.912,64.225v112.844c0,144.956,86.134,275.508,219.086,332.529L256,512l6.002-2.402  c132.952-57.021,219.086-187.573,219.086-332.529V64.225L256,0z" data-original="#E7E7E7" class="active-path"/><path style="fill:#C2C2C5" d="M481.088,64.225v112.844c0,144.956-86.134,275.508-219.086,332.529L256,512V0L481.088,64.225z" data-original="#D3D3D8" class="" data-old_color="#D3D3D8"/><path style="fill:#568698" d="M256,62.425L90.936,109.544v67.526c0,111.042,60.625,212.482,157.862,265.303l7.203,3.902  l7.203-3.902c97.238-52.821,157.862-154.26,157.862-265.303v-67.526L256,62.425z" data-original="#00ABE9" class="" data-old_color="#00ABE9"/><path style="fill:#04458F" d="M421.064,109.544v67.526c0,111.042-60.625,212.482-157.862,265.303L256,446.274V62.425  L421.064,109.544z" data-original="#0095FF" class="" data-old_color="#0095FF"/></g> </svg>
